<?xml version="1.0" encoding="utf-8"?>
<!-- Generator: Adobe Illustrator 24.1.2, SVG Export Plug-In . SVG Version: 6.00 Build 0)  -->
<svg version="1.1" xmlns="http://www.w3.org/2000/svg" xmlns:xlink="http://www.w3.org/1999/xlink" x="0px" y="0px"
	 viewBox="0 0 480 480" style="enable-background:new 0 0 480 480;" xml:space="preserve">
<style type="text/css">
	.st0{fill:#A7BCCF;}
	.st1{fill:#CFCFCF;}
	.st2{fill:#495867;}
	.st3{fill-rule:evenodd;clip-rule:evenodd;fill:#495867;}
</style>
<g id="Layer_1">
	<path class="st0" d="M295.8,308.9l12.9-12.9l72.8,72.8l-12.9,12.9L295.8,308.9z"/>
	<path class="st0" d="M298.2,170.4L369.6,99l11.2,11.2l-71.4,71.4L298.2,170.4z"/>
	<path class="st1" d="M480,64c0,35.3-28.7,64-64,64s-64-28.7-64-64s28.7-64,64-64S480,28.7,480,64z"/>
	<path class="st2" d="M423.8,56h-16c-8.8,0-16,7.2-16,16v24h48V72C439.8,63.2,432.6,56,423.8,56z"/>
	<path class="st2" d="M431.8,40c0,8.8-7.2,16-16,16s-16-7.2-16-16s7.2-16,16-16S431.8,31.2,431.8,40z"/>
	<path class="st1" d="M480,416c0,35.3-28.7,64-64,64s-64-28.7-64-64s28.7-64,64-64S480,380.7,480,416z"/>
	<path class="st2" d="M423.8,408h-16c-8.8,0-16,7.2-16,16v24h48v-24C439.8,415.2,432.6,408,423.8,408z"/>
	<path class="st2" d="M431.8,392c0,8.8-7.2,16-16,16s-16-7.2-16-16s7.2-16,16-16S431.8,383.2,431.8,392z"/>
	<g>
		<path class="st0" d="M99.7,111.2L111.8,99l68.6,68.6l-12.1,12.1L99.7,111.2z"/>
		<path class="st0" d="M98.1,370.3l72-72l11.3,11.3l-72,72L98.1,370.3z"/>
		<path class="st0" d="M231.8,88h16v64h-16V88z"/>
		<path class="st0" d="M231.8,328h16v64h-16V328z"/>
		<path class="st0" d="M327.8,232h64v16h-64V232z"/>
		<path class="st0" d="M87.8,232h64v16h-64V232z"/>
	</g>
	<path class="st1" d="M128,64c0,35.3-28.7,64-64,64S0,99.3,0,64S28.7,0,64,0S128,28.7,128,64z"/>
	<path class="st2" d="M71.8,56h-16c-8.8,0-16,7.2-16,16v24h48V72C87.8,63.2,80.6,56,71.8,56z"/>
	<path class="st2" d="M79.8,40c0,8.8-7.2,16-16,16s-16-7.2-16-16s7.2-16,16-16S79.8,31.2,79.8,40z"/>
	<path class="st1" d="M128,416c0,35.3-28.7,64-64,64S0,451.3,0,416s28.7-64,64-64S128,380.7,128,416z"/>
	<path class="st2" d="M71.8,408h-16c-8.8,0-16,7.2-16,16v24h48v-24C87.8,415.2,80.6,408,71.8,408z"/>
	<path class="st2" d="M79.8,392c0,8.8-7.2,16-16,16s-16-7.2-16-16s7.2-16,16-16S79.8,383.2,79.8,392z"/>
	<path class="st2" d="M308.9,264.6c1.6-4.5,5.8-7.6,10.7-7.6h16.2v-33.9h-16.2c-4.8,0-9-3.1-10.7-7.6c-0.8-2.3-1.8-4.6-2.9-6.9
		c-2.1-4.4-1.3-9.5,2.1-13l11.5-11.5l-24-24l-11.5,11.5c-3.4,3.4-8.6,4.2-13,2.1c-2.2-1.1-4.5-2-6.9-2.8c-4.5-1.6-7.6-5.8-7.6-10.7
		V144h-33.9v16.2c0,4.8-3.1,9-7.6,10.7c-2.3,0.8-4.6,1.8-6.9,2.8c-4.4,2.1-9.5,1.3-13-2.1l-11.5-11.5l-24,24l11.5,11.5
		c3.4,3.4,4.2,8.6,2.1,13c-1.1,2.2-2,4.5-2.8,6.9c-1.6,4.5-5.8,7.6-10.7,7.6h-16.2v33.9H160c4.8,0,9,3.1,10.7,7.6
		c0.8,2.3,1.8,4.6,2.8,6.9c2.1,4.4,1.3,9.5-2.1,13L160,295.9l24,24l11.5-11.5c3.4-3.4,8.6-4.2,13-2.1c2.2,1.1,4.5,2,6.9,2.8
		c4.5,1.6,7.6,5.8,7.6,10.7V336h33.9v-16.2c0-4.8,3.1-9,7.6-10.7c2.3-0.8,4.6-1.8,6.9-2.8c4.4-2.1,9.5-1.3,13,2.1l11.5,11.5l24-24
		l-11.5-11.5c-3.4-3.4-4.2-8.6-2.1-13C307.1,269.2,308.1,266.9,308.9,264.6z M239.8,280c-22.1,0-40-17.9-40-40s17.9-40,40-40
		c22.1,0,40,17.9,40,40S261.9,280,239.8,280z"/>
</g>
<g id="emails">
	<path class="st2" d="M240.2,69.3c-3.4,0-6.7-0.9-9.6-2.7l-50.8-31.3c-2-1.3-2.7-3.9-1.6-6c1.2-2.1,3.8-2.8,5.8-1.6l50.9,31.2
		c3.1,2,7.1,2,10.2,0L296,27.7c2-1.2,4.6-0.5,5.8,1.6c1.1,2.1,0.4,4.8-1.6,6l-50.5,31.3C246.9,68.4,243.5,69.3,240.2,69.3z"/>
	<path class="st2" d="M287,95h-93.1c-8.8,0-16-7.4-16-16.6V18.1c0-9.1,7.2-16.5,16-16.6H287c8.8,0,16,7.4,16,16.6v60.3
		C303,87.5,295.8,94.9,287,95z M193.9,10.5c-4,0-7.3,3.4-7.3,7.5v60.3c0,4.2,3.3,7.5,7.3,7.5H287c4,0,7.3-3.4,7.3-7.5V18.1
		c0-4.2-3.3-7.5-7.3-7.5H193.9z"/>
	<path class="st2" d="M239.3,452.9c-3.4,0-6.7-0.9-9.6-2.7l-50.8-31.3c-2-1.3-2.7-3.9-1.6-6c1.2-2.1,3.8-2.8,5.8-1.6l50.9,31.2
		c3.1,2,7.1,2,10.2,0l50.9-31.2c2-1.2,4.6-0.5,5.8,1.6c1.1,2.1,0.4,4.8-1.6,6l-50.5,31.3C246,452,242.7,452.9,239.3,452.9z"/>
	<path class="st2" d="M286.2,478.6H193c-8.8,0-16-7.4-16-16.6v-60.3c0-9.1,7.2-16.5,16-16.6h93.1c8.8,0,16,7.4,16,16.6V462
		C302.1,471.1,295,478.5,286.2,478.6z M193,394.2c-4,0-7.3,3.4-7.3,7.5V462c0,4.2,3.3,7.5,7.3,7.5h93.1c4,0,7.3-3.4,7.3-7.5v-60.3
		c0-4.2-3.3-7.5-7.3-7.5H193z"/>
</g>
<g id="note">
	<path id="path3683" class="st3" d="M13,184.4c-3.1,0-6,1.2-8.2,3.4C2.6,190,1.3,193,1.3,196v85.2c0,3.1,1.2,6,3.4,8.2
		c2.2,2.2,5.1,3.4,8.2,3.4h69.7c3.1,0,6-1.2,8.2-3.4c2.2-2.2,3.4-5.1,3.4-8.2V196c0-3.1-1.2-6-3.4-8.2c-2.2-2.2-5.1-3.4-8.2-3.4
		C82.7,184.4,13,184.4,13,184.4z M13,192.2h69.7c1,0,2,0.4,2.7,1.1c0.7,0.7,1.1,1.7,1.1,2.7v85.2c0,1-0.4,2-1.1,2.7
		c-0.7,0.7-1.7,1.1-2.7,1.1H13c-1,0-2-0.4-2.7-1.1c-0.7-0.7-1.1-1.7-1.1-2.7V196c0-1,0.4-2,1.1-2.7C11,192.6,11.9,192.2,13,192.2z"
		/>
	<path id="path3679" class="st3" d="M34.3,211.5c-2.1,0-3.9,1.7-3.9,3.9v0c0,2.1,1.7,3.9,3.9,3.9h27.1c2.1,0,3.9-1.7,3.9-3.9v0
		c0-2.1-1.8-3.9-3.9-3.9H34.3z"/>
	<path id="path3675" class="st3" d="M34.3,234.8C34.3,234.8,34.3,234.8,34.3,234.8c-2.1,0-3.9,1.7-3.9,3.9v0c0,2.1,1.7,3.9,3.9,3.9
		h27.1c2.1,0,3.9-1.7,3.9-3.9v0c0-2.1-1.7-3.9-3.9-3.9c0,0,0,0,0,0H34.3z"/>
	<path id="path3671" class="st3" d="M34.3,258C34.3,258,34.3,258,34.3,258c-2.1,0-3.9,1.7-3.9,3.9v0c0,2.1,1.8,3.9,3.9,3.9h27.1
		c2.1,0,3.9-1.7,3.9-3.9c0,0,0,0,0,0c0-2.1-1.7-3.9-3.9-3.9c0,0,0,0,0,0H34.3z"/>
	<path id="path3683_1_" class="st3" d="M397.5,184.4c-3.1,0-6,1.2-8.2,3.4c-2.2,2.2-3.4,5.1-3.4,8.2v85.2c0,3.1,1.2,6,3.4,8.2
		c2.2,2.2,5.1,3.4,8.2,3.4h69.7c3.1,0,6-1.2,8.2-3.4c2.2-2.2,3.4-5.1,3.4-8.2V196c0-3.1-1.2-6-3.4-8.2c-2.2-2.2-5.1-3.4-8.2-3.4
		C467.2,184.4,397.5,184.4,397.5,184.4z M397.5,192.2h69.7c1,0,2,0.4,2.7,1.1c0.7,0.7,1.1,1.7,1.1,2.7v85.2c0,1-0.4,2-1.1,2.7
		c-0.7,0.7-1.7,1.1-2.7,1.1h-69.7c-1,0-2-0.4-2.7-1.1c-0.7-0.7-1.1-1.7-1.1-2.7V196c0-1,0.4-2,1.1-2.7
		C395.5,192.6,396.5,192.2,397.5,192.2z"/>
	<path id="path3679_1_" class="st3" d="M420,211.5c-2.1,0-3.9,1.7-3.9,3.9v0c0,2.1,1.7,3.9,3.9,3.9h27.1c2.1,0,3.9-1.7,3.9-3.9v0
		c0-2.1-1.8-3.9-3.9-3.9H420z"/>
	<path id="path3675_1_" class="st3" d="M420,234.8C420,234.8,420,234.8,420,234.8c-2.1,0-3.9,1.7-3.9,3.9v0c0,2.1,1.7,3.9,3.9,3.9
		h27.1c2.1,0,3.9-1.7,3.9-3.9v0c0-2.1-1.7-3.9-3.9-3.9c0,0,0,0,0,0H420z"/>
	<path id="path3671_1_" class="st3" d="M420,258C420,258,420,258,420,258c-2.1,0-3.9,1.7-3.9,3.9v0c0,2.1,1.8,3.9,3.9,3.9h27.1
		c2.1,0,3.9-1.7,3.9-3.9c0,0,0,0,0,0c0-2.1-1.7-3.9-3.9-3.9c0,0,0,0,0,0H420z"/>
</g>
</svg>
