<?xml version="1.0" encoding="iso-8859-1"?>
<!-- Generator: Adobe Illustrator 19.0.0, SVG Export Plug-In . SVG Version: 6.00 Build 0)  -->
<svg version="1.1" id="Capa_1" xmlns="http://www.w3.org/2000/svg" xmlns:xlink="http://www.w3.org/1999/xlink" x="0px" y="0px"
	 viewBox="0 0 512 512" style="enable-background:new 0 0 512 512;" xml:space="preserve">
<g>
	<g>
		<path d="M494.5,371H492V96c0-8.271-6.729-15-15-15H35c-8.271,0-15,6.729-15,15v275h-2.5C7.851,371,0,378.851,0,388.5v15
			C0,418.664,12.336,431,27.5,431h457c15.164,0,27.5-12.336,27.5-27.5v-15C512,378.851,504.149,371,494.5,371z M35,96h442v275h-15
			V118.5c0-4.142-3.357-7.5-7.5-7.5h-397c-4.143,0-7.5,3.358-7.5,7.5v229c0,4.142,3.357,7.5,7.5,7.5s7.5-3.358,7.5-7.5V126h382
			v215.067c-0.313-0.04-0.631-0.067-0.955-0.067h-58.09c-8.798,0-15.955,7.279-15.955,16.227v12.545
			c0,0.419,0.043,0.827,0.109,1.228h-31.502l14.696-14.696c2.929-2.93,2.929-7.678,0-10.607c-2.929-2.928-7.678-2.928-10.606,0
			l-20,20c-1.465,1.465-2.197,3.384-2.197,5.304H35V96z M447,355.933V371h-60.109c0.066-0.4,0.109-0.808,0.109-1.228v-12.545
			c0-0.734,0.494-1.227,0.955-1.227h58.09C446.369,356,446.687,355.972,447,355.933z M497,403.5c0,6.893-5.607,12.5-12.5,12.5h-457
			c-6.893,0-12.5-5.607-12.5-12.5v-15c0-1.378,1.121-2.5,2.5-2.5h477c1.379,0,2.5,1.122,2.5,2.5V403.5z"/>
	</g>
</g>
<g>
</g>
<g>
</g>
<g>
</g>
<g>
</g>
<g>
</g>
<g>
</g>
<g>
</g>
<g>
</g>
<g>
</g>
<g>
</g>
<g>
</g>
<g>
</g>
<g>
</g>
<g>
</g>
<g>
</g>
</svg>
