<?xml version="1.0" encoding="utf-8"?>
<!-- Generator: Adobe Illustrator 24.1.2, SVG Export Plug-In . SVG Version: 6.00 Build 0)  -->
<svg version="1.1" id="Layer_2" xmlns="http://www.w3.org/2000/svg" xmlns:xlink="http://www.w3.org/1999/xlink" x="0px" y="0px"
	 viewBox="0 0 72 72" style="enable-background:new 0 0 72 72;" xml:space="preserve">
<g>
	<path d="M36,19.2c-2.2,6.7-4.2,12.3-6,16.8l-2.2,5.7h16.5L42.1,36c-1.7-4.5-3.7-10.1-6-16.8H36z"/>
	<path d="M69.4,2.6C68.1,1.2,63.6,1,36,1S3.9,1.2,2.6,2.6C1.2,3.9,1,8.4,1,36s0.2,32.1,1.6,33.4C3.9,70.8,8.4,71,35.9,71
		c29.5,0,31.9-0.1,33.4-1.8c1.5-1.6,1.7-5.5,1.7-33.5C71,8.3,70.8,3.9,69.4,2.6z M54.4,67.8l-6.3-16.3H24l-6.3,16.3H5.2l25.4-64
		h10.7l25.4,64H54.4z"/>
</g>
</svg>
